<svg width="40" height="40" viewBox="0 0 40 40" fill="none" xmlns="http://www.w3.org/2000/svg">
<path d="M20 29C24.9707 29 29 24.9706 29 20C29 15.0294 24.9707 11 20 11C15.0293 11 11 15.0294 11 20C11 24.9706 15.0293 29 20 29Z" fill="white"/>
<path fill-rule="evenodd" clip-rule="evenodd" d="M20 40C31.0459 40 40 31.0457 40 20C40 8.95432 31.0459 0 20 0C8.9541 0 0 8.95432 0 20C0 31.0457 8.9541 40 20 40ZM20 34C12.2676 34 6 27.732 6 20C6 12.268 12.2676 6 20 6C27.7324 6 34 12.268 34 20C34 27.732 27.7324 34 20 34Z" fill="white"/>
</svg>
